<?xml version="1.0" encoding="UTF-8"?>
<svg id="Capa_1" data-name="Capa 1" xmlns="http://www.w3.org/2000/svg" viewBox="0 0 32 32">
  <defs>
    <style>
      .cls-1 {
        fill: #aa87c1;
      }
    </style>
  </defs>
  <path class="cls-1" d="M9.24,16.84l.06.68c1.63-.38,3.33-.48,5-.34-.25-1.29.21-2.45.75-3.6.62-1.33,1.55-2.85,2.49-3.98.17-.2.81-.98,1.04-.98.36.09.73.16,1.1.2.85.09,1.87.13,2.72.06.37-.03,1.32-.27,1.59-.23.16.03.58.56.71.71,1.18,1.42,2.78,4.24,3.17,6.04.22,1.02.06,2.06-.32,3.02,2.33-.12,3.83,2.37,2.52,4.37-.76,1.17-3.04,3.32-4.14,4.32-3.03,2.75-6.97,3.55-10.85,2.16-1.93-.69-3.5-2.38-5.71-1.99l-.11,1.7H1.8c-.45-4.03-.45-8.12,0-12.15h7.44ZM21.79,12.47h-1.02v.5c-1.82.39-1.88,2.44-.07,3,.44.14,1.67.18,1.61.84-.05.54-1.03.39-1.39.19-.14-.08-.44-.39-.47-.39h-1.05v1.53h1.08v-.17c.47-.02.18.6.34.71l.97.03.02-.46c1.88-.26,2.12-2.37.29-3.01-.37-.13-1.53-.24-1.65-.62-.23-.68.72-.72,1.17-.54.21.08.56.48.6.48h1.05v-1.51l-.09-.09h-.94v.23s-.43-.17-.43-.17l-.03-.57ZM16.69,22.98c.73.16,1.43.49,2.15.7,1.04.3,2.76.83,3.36-.44.54-1.15-.36-1.87-1.19-2.47-2.75-2-6.65-2.64-9.99-2.28-.54.06-1.08.19-1.61.29,0,1.35.14,2.71.14,4.07,0,1.04-.08,2.1-.09,3.14.75-.11,1.52.02,2.24.23,1.56.45,2.73,1.52,4.3,2.01,2.74.84,6.35.39,8.53-1.55,1.51-1.34,2.81-2.96,4.29-4.34,1.13-1.45-.45-3.21-1.8-2.42-.47.27-1.54,1.34-1.98,1.77-.36.35-.82.81-1.14,1.19-.62.75-.64,1.49-1.57,2.07-1.07.67-2.12.44-3.28.17-.93-.23-1.83-.58-2.74-.9-.07-.04-.05-.09-.05-.16.03-.28.36-.74.39-1.06Z"/>
  <path class="cls-1" d="M23.59,7.68c-.19.17-.55.21-.8.25-.96.13-2.21.09-3.16-.07-.18-.03-.76-.13-.87-.21-.1-.07-.45-.64-.53-.78-.52-.92-1.23-2.8-1.09-3.85.14-1.06,1.45-.65,2.09-.34.46.22,1.71,1.18,2.08,1.16.47-.02,1.58-1.25,2.09-1.55,1.5-.87,1.79.84,1.62,1.96-.12.81-.83,2.88-1.43,3.42Z"/>
</svg>