<?xml version="1.0" encoding="UTF-8"?>
<svg id="Capa_1" data-name="Capa 1" xmlns="http://www.w3.org/2000/svg" viewBox="0 0 32 32">
  <defs>
    <style>
      .cls-1 {
        fill: #864291;
      }
    </style>
  </defs>
  <path class="cls-1" d="M20.86.68l1.74.42c8.87,2.96,5.58,18.08,2.56,24.35-1.1,2.29-2.84,5.18-5.45,5.87h-.79c-.89-.23-1.34-.66-1.75-1.46-.5-.98-.39-2.13-1.81-2.06s-2.94.83-4.38.24c-1.55-.63-1.27-2.85-2.66-3.42-1.6-.66-3.28-.59-4.26-2.43-1.81-3.42,2.83-5.6,4.74-7.38,3.74-3.5,4.98-12.35,9.42-13.82l1.32-.31h1.32ZM17.83,5.02c-3.13.43-3.68,4.7-.14,4.26,2.29-.28,3.96-4.79.14-4.26ZM22.88,6.6c-1.32.27-1.25,2.65-.85,3.61,1.01,2.41,3.93,1.72,3.82-.88-.06-1.36-1.55-3.02-2.97-2.74Z"/>
</svg>