<?xml version="1.0" encoding="UTF-8"?>
<svg id="Capa_1" data-name="Capa 1" xmlns="http://www.w3.org/2000/svg" viewBox="0 0 411.91 334.51">
  <defs>
    <style>
      .cls-1, .cls-2 {
        fill: #84428c;
      }

      .cls-3 {
        fill: #2f2e41;
      }

      .cls-4 {
        fill: #fff;
      }

      .cls-5 {
        fill: none;
        stroke: #84428c;
        stroke-miterlimit: 10;
      }

      .cls-6 {
        fill: #3f3d56;
      }

      .cls-7 {
        fill: #f2f2f2;
      }

      .cls-8 {
        fill: #a0616a;
      }

      .cls-2 {
        font-family: CascadiaMonoRoman-Bold, 'Cascadia Mono';
        font-size: 13.74px;
        font-variation-settings: 'wght' 700;
        font-weight: 700;
      }

      .cls-9 {
        fill: #ccc;
      }

      .cls-10 {
        fill: #e4e4e4;
      }

      .cls-11 {
        fill: #e6e6e6;
      }
    </style>
  </defs>
  <path class="cls-7" d="M298.72,191.42l-130.93,33.72c-9.25,2.37-18.67-3.19-21.06-12.43L107.13,58.93c-2.37-9.25,3.19-18.67,12.43-21.06L241.38,6.5l31.18,13.96,38.6,149.9c2.37,9.25-3.19,18.67-12.43,21.06Z"/>
  <path class="cls-4" d="M120.8,42.69c-6.58,1.7-10.54,8.41-8.85,15l39.6,153.77c1.7,6.58,8.41,10.54,15,8.85l130.93-33.72c6.58-1.7,10.54-8.41,8.85-15l-38-147.58-27.4-12.27-120.13,30.93Z"/>
  <path class="cls-7" d="M272.22,21.25l-20.26,5.22c-3.08.79-6.22-1.06-7.01-4.14l-3.85-14.97c-.05-.19.07-.39.26-.44.08-.02.16-.01.24.02l30.69,13.63c.18.08.26.29.18.48-.04.1-.13.18-.24.2Z"/>
  <path class="cls-9" d="M261.56,152.57l-59.61,15.35c-1.54.4-3.11-.53-3.51-2.07-.4-1.54.53-3.11,2.07-3.51h0l59.61-15.35c1.54-.4,3.11.53,3.51,2.07.4,1.54-.53,3.11-2.07,3.51Z"/>
  <path class="cls-9" d="M275.49,159.02l-71.12,18.31c-1.54.4-3.11-.53-3.5-2.07-.39-1.54.53-3.11,2.07-3.5l71.12-18.31c1.54-.4,3.11.53,3.51,2.07s-.53,3.11-2.07,3.51Z"/>
  <circle id="a597741b-ffcf-4aba-98b0-6652ef5d57c9" class="cls-11" cx="177.62" cy="176.23" r="10.18"/>
  <path class="cls-4" d="M255.22,125.93l-79.17,20.38c-4.76,1.22-9.62-1.65-10.85-6.41l-16.59-64.45c-1.22-4.76,1.65-9.62,6.41-10.85l79.17-20.38c4.76-1.22,9.62,1.65,10.85,6.41l16.59,64.45c1.22,4.76-1.65,9.62-6.41,10.85Z"/>
  <path class="cls-11" d="M255.22,125.93l-79.17,20.38c-4.76,1.22-9.62-1.65-10.85-6.41l-16.59-64.45c-1.22-4.76,1.65-9.62,6.41-10.85l79.17-20.38c4.76-1.22,9.62,1.65,10.85,6.41l16.59,64.45c1.22,4.76-1.65,9.62-6.41,10.85ZM155.28,65.62c-4.2,1.09-6.73,5.37-5.65,9.57l16.59,64.45c1.09,4.2,5.37,6.73,9.57,5.65l79.17-20.38c4.2-1.09,6.73-5.37,5.65-9.57l-16.59-64.45c-1.09-4.2-5.37-6.73-9.57-5.65l-79.17,20.38Z"/>
  <path id="b056fd3f-f1a0-44f0-b006-deff0bee637d-478" class="cls-7" d="M230.17,65.9l-39.96,10.29c-.72.2-1.48-.19-1.73-.9-.23-.73.17-1.5.9-1.73.02,0,.05-.01.07-.02l40.67-10.47c1.64.83,1.21,2.54.05,2.84h0Z"/>
  <path id="f1ea6668-a825-428d-96fe-a2c4e1b5a672-479" class="cls-7" d="M231.98,72.9l-39.96,10.29c-.72.2-1.48-.19-1.73-.9-.23-.73.17-1.5.9-1.73.02,0,.05-.01.07-.02l40.67-10.47c1.64.83,1.21,2.54.05,2.84h0Z"/>
  <path id="ee9aa382-a9c9-40d0-8ed3-22ec2dd616d6-480" class="cls-11" d="M184.41,89.4l-12.19,3.14c-.83.21-1.67-.29-1.89-1.12l-3.7-14.39c-.21-.83.29-1.67,1.12-1.89l12.19-3.14c.83-.21,1.67.29,1.89,1.12l3.7,14.39c.21.83-.29,1.67-1.12,1.89h0Z"/>
  <path id="be954d2b-d8b8-4d26-80a0-a319e99a4b10-481" class="cls-7" d="M235.55,87.28l-60.98,15.7c-.72.2-1.48-.19-1.73-.9-.23-.73.17-1.5.9-1.73.02,0,.05-.01.07-.02l61.7-15.88c1.64.83,1.21,2.54.05,2.84h0Z"/>
  <path id="baaae9e4-1b4d-40c2-8a9d-f2abb078b489-482" class="cls-7" d="M237.36,94.29l-60.98,15.7c-.72.2-1.48-.19-1.73-.9-.23-.73.17-1.5.9-1.73.02,0,.05-.01.07-.02l61.7-15.88c1.64.83,1.21,2.54.05,2.84h0Z"/>
  <path id="a91bf4c9-37f6-4391-92ed-1882bd0ce21c-483" class="cls-7" d="M239.16,101.3l-60.98,15.7c-.72.2-1.48-.19-1.73-.9-.23-.73.17-1.5.9-1.73.02,0,.05-.01.07-.02l61.7-15.88c1.64.83,1.21,2.54.05,2.84h0Z"/>
  <path id="efb98e07-468b-4c85-9a64-ee4cc5493d6f-484" class="cls-7" d="M240.97,108.31l-60.98,15.7c-.72.2-1.48-.19-1.73-.9-.23-.73.17-1.5.9-1.73.02,0,.05-.01.07-.02l61.7-15.88c1.64.83,1.21,2.54.05,2.84Z"/>
  <path id="aeb1db98-32e5-40b8-ab89-fdad6a3263dc-485" class="cls-7" d="M242.77,115.32l-60.98,15.7c-.72.2-1.48-.19-1.73-.9-.23-.73.17-1.5.9-1.73.02,0,.05-.01.07-.02l61.7-15.88c1.64.83,1.21,2.54.05,2.84Z"/>
  <path id="be265de5-288f-49a7-867d-c42e7cdbf4db-486" class="cls-4" d="M178.37,179.8c-.22.06-.46.04-.67-.05h-.01s-2.77-1.18-2.77-1.18c-.54-.23-.79-.85-.57-1.39.23-.54.85-.79,1.39-.57,0,0,0,0,0,0l1.8.76,2.35-5.54c.23-.54.85-.79,1.39-.56,0,0,0,0,0,0h0s-.01.04-.01.04v-.04c.55.23.81.85.58,1.39l-2.77,6.51c-.13.3-.39.53-.72.61h0Z"/>
  <path class="cls-11" d="M348.94,250.02h-135.21c-9.55-.01-17.28-7.75-17.29-17.29V73.94c.01-9.55,7.75-17.28,17.29-17.29h125.79l26.71,21.29v154.79c-.01,9.55-7.75,17.28-17.29,17.29Z"/>
  <path class="cls-4" d="M213.74,61.62c-6.8,0-12.31,5.52-12.32,12.32v158.79c0,6.8,5.52,12.31,12.32,12.32h135.21c6.8,0,12.31-5.52,12.32-12.32V80.33l-23.48-18.71h-124.04Z"/>
  <path class="cls-1" d="M322.64,107.79h-61.56c-1.59,0-2.88-1.29-2.88-2.88,0-1.59,1.29-2.87,2.88-2.88h61.56c1.59,0,2.88,1.29,2.88,2.88,0,1.59-1.29,2.88-2.88,2.88h0Z"/>
  <path class="cls-1" d="M334.52,117.51h-73.44c-1.59,0-2.88-1.29-2.88-2.88s1.29-2.88,2.88-2.88h73.44c1.59,0,2.88,1.29,2.88,2.88s-1.29,2.88-2.88,2.88Z"/>
  <path class="cls-9" d="M322.64,145.59h-61.55c-1.59,0-2.88,1.29-2.88,2.88,0,1.59,1.29,2.88,2.88,2.88h61.56c1.59,0,2.88-1.29,2.88-2.88,0-1.59-1.29-2.87-2.88-2.88Z"/>
  <path class="cls-9" d="M334.52,155.31h-73.44c-1.59,0-2.88,1.29-2.88,2.88s1.29,2.88,2.88,2.88h73.44c1.59,0,2.88-1.29,2.88-2.88,0-1.59-1.29-2.87-2.88-2.88Z"/>
  <path class="cls-9" d="M322.64,194.91h-61.56c-1.59,0-2.88-1.29-2.88-2.88,0-1.59,1.29-2.87,2.88-2.88h61.56c1.59,0,2.88,1.29,2.88,2.88,0,1.59-1.29,2.88-2.88,2.88h0Z"/>
  <path class="cls-9" d="M334.52,204.63h-73.44c-1.59,0-2.88-1.29-2.88-2.88s1.29-2.88,2.88-2.88h73.44c1.59,0,2.88,1.29,2.88,2.88s-1.29,2.88-2.88,2.88Z"/>
  <circle id="abdb8e2f-a218-463c-85f4-c869fef49971" class="cls-1" cx="235.45" cy="109.77" r="10.18"/>
  <path id="ba7dbbd6-0052-44b1-a552-47a8298b8d3e-487" class="cls-4" d="M234.44,113.66c-.23,0-.45-.07-.64-.21h-.01s-2.39-1.84-2.39-1.84c-.47-.36-.56-1.02-.2-1.49.36-.47,1.02-.56,1.49-.2,0,0,0,0,0,0l1.55,1.19,3.66-4.78c.36-.47,1.02-.55,1.49-.2h0s0,0,0,0l-.02.03.02-.03c.47.36.55,1.02.2,1.49l-4.31,5.62c-.2.26-.51.42-.85.41h0Z"/>
  <path class="cls-9" d="M246.68,153.33c0,5.62-4.55,10.18-10.17,10.18h0c-.09,0-.17,0-.26-.01-5.62-.14-10.06-4.82-9.91-10.44.14-5.62,4.82-10.06,10.44-9.91,5.52.14,9.92,4.66,9.92,10.18Z"/>
  <circle id="e4a71040-498e-4958-ad41-c2d79154b8f7" class="cls-9" cx="235.45" cy="196.89" r="10.18"/>
  <path class="cls-9" d="M365.71,78.62h-20.92c-3.18,0-5.76-2.58-5.76-5.76h0v-15.45c0-.2.16-.36.36-.36.08,0,.16.03.22.08l26.32,20.85c.16.12.18.35.06.51-.07.09-.17.14-.28.14Z"/>
  <path class="cls-1" d="M246.68,153.33c0,5.62-4.55,10.18-10.17,10.18h0c-.09,0-.17,0-.26-.01-2.67-6.66-1.93-14.19,1.98-20.21,4.89.84,8.46,5.08,8.46,10.04Z"/>
  <path class="cls-1" d="M258.21,148.47c0-1.59,1.29-2.88,2.88-2.88h15.34c.9,1.82,1.53,3.76,1.89,5.76h-17.23c-1.59,0-2.88-1.29-2.88-2.88Z"/>
  <path class="cls-1" d="M278.68,155.31c0,1.95-.26,3.88-.77,5.76h-16.82c-1.59,0-2.88-1.29-2.88-2.88,0-1.59,1.29-2.88,2.88-2.88h17.59Z"/>
  <path class="cls-6" d="M316.63,190.83c-.9,1.48-2.84,1.95-4.32,1.05l-36.69-22.38c-1.48-.9-1.95-2.84-1.05-4.32.9-1.48,2.84-1.95,4.32-1.05l36.69,22.38c1.48.9,1.95,2.84,1.05,4.32Z"/>
  <path class="cls-6" d="M279.94,168.45c-7.23,11.86-22.71,15.61-34.57,8.38-11.86-7.23-15.61-22.71-8.38-34.57,7.23-11.86,22.71-15.61,34.57-8.38h0c11.85,7.24,15.59,22.71,8.38,34.57ZM242.36,145.53c-5.43,8.9-2.61,20.5,6.28,25.93,8.9,5.43,20.5,2.61,25.93-6.28,5.43-8.9,2.61-20.5-6.28-25.93-8.9-5.41-20.5-2.6-25.93,6.28Z"/>
  <circle class="cls-8" cx="360.54" cy="146.51" r="12.87"/>
  <path class="cls-8" d="M359.7,218.67c-.97-3.03.7-6.28,3.73-7.25.21-.07.42-.12.63-.16.25-.05.51-.08.76-.09l13.56-21.76-12.38-11.77c-1.98-1.88-2.06-5.01-.18-6.99,1.88-1.98,5.01-2.06,6.99-.18.02.02.04.04.06.06l17.1,16.86.03.04c1.09,1.65.96,3.82-.31,5.34l-19,22.47c.06.18.1.36.14.55.62,3.12-1.4,6.16-4.53,6.78-.21.04-.43.07-.65.09-.16.01-.33.02-.49.02-2.5-.01-4.71-1.63-5.48-4Z"/>
  <polygon class="cls-8" points="339.34 325.65 332.91 325.65 329.86 300.87 339.34 300.87 339.34 325.65"/>
  <path class="cls-3" d="M340.98,331.88h-20.72v-.26c0-4.45,3.61-8.06,8.06-8.06h12.65s0,8.33,0,8.33Z"/>
  <polygon class="cls-8" points="403.2 316.77 397.68 320.05 382.37 300.33 390.52 295.47 403.2 316.77"/>
  <path class="cls-3" d="M407.79,321.28l-17.8,10.6-.13-.23c-2.28-3.83-1.02-8.77,2.8-11.05,0,0,0,0,0,0h0s10.87-6.47,10.87-6.47l4.26,7.15Z"/>
  <path class="cls-3" d="M329.05,314.74c-4.3-50.68-6.86-97.76,8.87-116.96l.12-.15,26.48,10.59.04.09c.09.19,8.9,19.56,6.84,32.59l6.53,30.04,21.3,35.66c.67,1.12.3,2.57-.82,3.23-.08.05-.17.09-.26.13l-9.25,4.07c-1.08.47-2.34.08-2.96-.93l-23.17-37.77-13.08-28.97c-.18-.4-.64-.57-1.04-.39-.25.11-.43.36-.46.63l-7.25,68.18c-.13,1.2-1.14,2.11-2.34,2.11h-7.19c-1.22,0-2.24-.94-2.35-2.16Z"/>
  <path class="cls-1" d="M338,198.17l-.13-.06-.02-.14c-.99-6.92.18-14.61,3.48-22.86,3.36-8.34,12.32-12.97,21.07-10.87h0c4.93,1.21,9.12,4.44,11.56,8.89,2.41,4.41,2.86,9.62,1.24,14.37-4.16,12.16-9.55,23.53-9.61,23.65l-.11.24-27.49-13.22Z"/>
  <path class="cls-8" d="M309.12,180.93c2.5-1.97,6.12-1.55,8.1.95.14.17.26.35.38.54.13.22.25.45.36.68l25.13,5.08,6.69-15.72c1.07-2.51,3.97-3.68,6.48-2.61s3.68,3.97,2.61,6.48c-.01.03-.02.05-.04.08l-9.8,21.92-.03.05c-1.17,1.6-3.24,2.24-5.11,1.58l-27.7-9.93c-.15.12-.3.22-.46.32-2.71,1.68-6.26.84-7.94-1.87-.11-.19-.22-.38-.31-.58-.07-.15-.13-.3-.19-.45-.87-2.35-.13-4.98,1.83-6.53Z"/>
  <path class="cls-3" d="M407.03,160.3c-1.24-2.2-3.05-4.21-5.43-5.02-3.08-1.05-6.42.07-9.59.81-2.44.57-5,.93-7.46.44-2.46-.48-4.84-1.92-5.96-4.16-1.65-3.3-.26-7.24-.36-10.93-.19-7.33-6.28-13.12-13.61-12.93-1.05.03-2.1.18-3.12.45-3.04-.88-5.79-.96-7.66,1.38-4.92,0-8.91,3.99-8.91,8.91h8.52c-.4,2.17.06,4.42,1.29,6.25,1.5,2.21,4.12,3.81,4.62,6.43.49,2.54-1.24,4.96-3.05,6.81-1.81,1.85-3.92,3.68-4.48,6.21-.35,1.92.05,3.9,1.1,5.54,1.05,1.62,2.36,3.06,3.87,4.26,6.8,5.83,14.89,9.97,23.6,12.07,6.13,1.48,12.84,1.86,18.54-.86,9.18-4.38,13.06-15.36,8.69-24.54-.18-.38-.38-.75-.58-1.12Z"/>
  <path class="cls-9" d="M408.96,332.42h-99.57c-.29,0-.52-.23-.52-.52s.23-.52.52-.52h99.57c.29,0,.52.23.52.52s-.23.52-.52.52Z"/>
  <path class="cls-11" d="M185.22,330.73H4.6c-1.57,0-2.84-1.27-2.85-2.85v-78.55c0-1.57,1.27-2.84,2.85-2.85h180.62c1.57,0,2.84,1.27,2.85,2.85v78.55c0,1.57-1.27,2.84-2.85,2.85ZM4.6,247.63c-.94,0-1.71.76-1.71,1.71v78.55c0,.94.76,1.71,1.71,1.71h180.62c.94,0,1.71-.76,1.71-1.71v-78.55c0-.94-.76-1.71-1.71-1.71H4.6Z"/>
  <path class="cls-11" d="M12,256.17c-.94,0-1.71.76-1.71,1.71s.76,1.71,1.71,1.71h23.91c.94,0,1.71-.76,1.71-1.71s-.76-1.71-1.71-1.71H12Z"/>
  <path class="cls-11" d="M175.65,268.05v31.66H14.45v-16.67c1.12-.72,2.24-1.43,3.37-2.12,4.84-2.96,10.02-5.73,15.66-6.76,2.67-.5,5.41-.53,8.09-.1,2.83.47,5.54,1.44,8.23,2.42,2.65.97,5.3,1.97,8.07,2.53,2.7.53,5.47.58,8.18.16,5.18-.78,10.05-2.86,14.9-4.75,4.88-1.89,9.91-3.69,15.19-3.92,5.21-.24,10.36,1,15.31,2.52,10.09,3.11,20.39,7.73,31.07,4.56,10.85-3.21,20.82-12.48,32.84-9.73.11.02.22.08.28.18Z"/>
  <circle class="cls-1" cx="36.66" cy="274.47" r="2.36"/>
  <circle class="cls-1" cx="96.23" cy="287.61" r="2.36"/>
  <circle class="cls-1" cx="168.92" cy="268.41" r="2.36"/>
  <path class="cls-11" d="M35.33,313.09c-.94,0-1.71.76-1.71,1.71s.76,1.71,1.71,1.71h23.91c.94,0,1.71-.76,1.71-1.71s-.76-1.71-1.71-1.71h-23.91Z"/>
  <circle class="cls-1" cx="19.97" cy="314.61" r="6.45"/>
  <path class="cls-11" d="M93.01,313.09c-.94,0-1.71.76-1.71,1.71s.76,1.71,1.71,1.71h23.91c.94,0,1.71-.76,1.71-1.71s-.76-1.71-1.71-1.71h-23.91Z"/>
  <circle class="cls-1" cx="77.64" cy="314.61" r="6.45"/>
  <path class="cls-11" d="M150.69,313.09c-.94,0-1.71.76-1.71,1.71s.76,1.71,1.71,1.71h23.91c.94,0,1.71-.76,1.71-1.71s-.76-1.71-1.71-1.71h-23.91Z"/>
  <circle class="cls-1" cx="135.32" cy="314.61" r="6.45"/>
  <path id="e1cfef3e-7788-4f0f-b252-d185c9336b04-562" class="cls-11" d="M172.85,225.29h-89.11c-1.74,0-3.14-1-3.15-2.24v-19.37c0-1.24,1.41-2.24,3.15-2.24h89.11c1.74,0,3.14,1,3.15,2.24v19.37c0,1.24-1.41,2.24-3.15,2.24ZM83.74,202.34c-1.04,0-1.89.6-1.89,1.34v19.37c0,.74.85,1.34,1.89,1.34h89.11c1.04,0,1.89-.6,1.89-1.34v-19.37c0-.74-.85-1.34-1.89-1.34h-89.11Z"/>
  <path class="cls-1" d="M103.89,212.45c-1.05,0-1.9.85-1.9,1.9v13.28c0,1.05.85,1.9,1.9,1.9h67.92c1.05,0,1.9-.85,1.9-1.9v-13.28c0-1.05-.85-1.9-1.9-1.9h-67.92Z"/>
  <circle class="cls-4" cx="113.38" cy="221.18" r="4.17"/>
  <path class="cls-4" d="M132.4,219.36c-.94,0-1.71.76-1.71,1.71s.76,1.71,1.71,1.71h23.91c.94,0,1.71-.76,1.71-1.71s-.76-1.71-1.71-1.71h-23.91Z"/>
  <path id="b00e8b21-64f0-4b6c-8490-a93637cb24e1-563" class="cls-11" d="M106.07,180.13H16.96c-1.74,0-3.14-1-3.15-2.24v-19.37c0-1.24,1.41-2.24,3.15-2.24h89.11c1.74,0,3.14,1,3.15,2.24v19.37c0,1.24-1.41,2.24-3.15,2.24ZM16.96,157.18c-1.04,0-1.89.6-1.89,1.34v19.37c0,.74.85,1.34,1.89,1.34h89.11c1.04,0,1.89-.6,1.89-1.34v-19.37c0-.74-.85-1.34-1.89-1.34H16.96Z"/>
  <path class="cls-1" d="M37.11,167.3c-1.05,0-1.9.85-1.9,1.9v13.28c0,1.05.85,1.9,1.9,1.9h67.92c1.05,0,1.9-.85,1.9-1.9v-13.28c0-1.05-.85-1.9-1.9-1.9H37.11Z"/>
  <circle class="cls-4" cx="46.6" cy="176.02" r="4.17"/>
  <path class="cls-4" d="M65.62,174.21c-.94,0-1.71.76-1.71,1.71s.76,1.71,1.71,1.71h23.91c.94,0,1.71-.76,1.71-1.71s-.76-1.71-1.71-1.71h-23.91Z"/>
  <circle class="cls-10" cx="116.07" cy="52.12" r="49.61"/>
  <circle class="cls-1" cx="116.07" cy="52.12" r="41.34"/>
  <path class="cls-4" d="M112.56,67.07c-.07,0-.15,0-.22,0-1.32-.06-2.55-.7-3.37-1.75l-6.34-8.15c-1.54-1.98-1.18-4.83.8-6.38l.23-.18c1.98-1.54,4.83-1.18,6.38.8,1.37,1.76,3.91,2.08,5.67.71.16-.13.31-.26.45-.41l12.88-13.59c1.73-1.82,4.6-1.9,6.42-.17,0,0,0,0,0,0l.21.2c1.82,1.73,1.9,4.6.17,6.42l-19.98,21.09c-.86.91-2.05,1.42-3.3,1.42Z"/>
  <text class="cls-2" transform="translate(19.97 174.21)"><tspan x="0" y="0">$</tspan></text>
  <text class="cls-2" transform="translate(84.09 219.36)"><tspan x="0" y="0">$</tspan></text>
  <text class="cls-2" transform="translate(91.3 219.36)"><tspan x="0" y="0">$</tspan></text>
  <path class="cls-5" d="M14.34,283.54s8.74-9.4,23.27-9.07c23.73.53,30.94,13.14,57.44,13.14,40.28,0,40.27-20.24,80.05-18.77"/>
  <g>
    <line class="cls-5" x1="96.23" y1="257.88" x2="96.23" y2="270.67"/>
    <polygon class="cls-1" points="93.32 268.68 96.23 279.53 99.13 268.68 93.32 268.68"/>
  </g>
</svg>