<?xml version="1.0" encoding="UTF-8"?>
<svg id="Capa_1" data-name="Capa 1" xmlns="http://www.w3.org/2000/svg" viewBox="0 0 32 32">
  <defs>
    <style>
      .cls-1 {
        fill: #e08080;
      }
    </style>
  </defs>
  <path class="cls-1" d="M18.77,3c-.44-.09-.89-.14-1.33-.24h-2.87c-6.89.56-12.18,7.08-11.84,13.89.31,6.28,5.47,12.04,11.84,12.56.92.07,1.94-.06,2.87,0,.44-.1.89-.15,1.33-.24,5.45-1.15,9.66-5.68,10.4-11.21.92-6.88-3.64-13.32-10.4-14.75ZM9.16,20.58c-.81.6-1.23-.34-1.5-.95-2.64-5.97,1.81-12.71,8.28-12.77,1.22-.01,2.59.28,3.71.77.57.25,1.46.62,1.02,1.41-.17.3-1.03,1.04-1.32,1.33-2.84,2.87-5.67,5.76-8.55,8.61-.45.45-1.17,1.24-1.65,1.59ZM12.32,24.32c-.61-.27-1.5-.68-.91-1.48.35-.47,1.15-1.2,1.59-1.65,2.84-2.87,5.73-5.7,8.61-8.55.35-.34.89-1.01,1.27-1.28.09-.06.23-.13.33-.15.66-.09.94.67,1.15,1.16,3.28,7.55-4.55,15.31-12.04,11.94Z"/>
</svg>