<?xml version="1.0" encoding="UTF-8"?>
<svg id="Capa_1" data-name="Capa 1" xmlns="http://www.w3.org/2000/svg" viewBox="0 0 32 32">
  <defs>
    <style>
      .cls-1 {
        fill: #c99a83;
      }
    </style>
  </defs>
  <path class="cls-1" d="M17.3,10.78l-1.71,1.92c.12.69.59.97.38,1.85l15.11,12.47c1.89,1.87-.97,5.22-3.09,3.5l-13.75-13.76c-.35-.34-.86.08-1.18-.01-.22-.07-.42-.53-.75-.5-.45.64-1.01,1.22-1.53,1.79-.09.1-.01.23-.26.13l-6.99-6.23,6.66-7.39,7.1,6.23Z"/>
  <path class="cls-1" d="M2.02,11.77l8.72,7.9c-.65,1.03-1.86,2.56-3.22,1.79-1.97-1.99-4.9-3.9-6.68-6-1.35-1.59.01-2.57,1.17-3.69Z"/>
  <path class="cls-1" d="M12.17,1.03c.75-.07,1.2.25,1.75.67,2.13,1.63,4.17,4.05,6.25,5.8.94,1.32-.44,2.66-1.48,3.31L10.15,3.14c-.19-.32.74-1.26,1.04-1.53.27-.24.59-.54.98-.58Z"/>
</svg>